<svg width="359" height="272" viewBox="0 0 359 272" fill="none" xmlns="http://www.w3.org/2000/svg">
<g opacity="0.2">
<path d="M61.0008 245.88C129.047 280.686 239.372 280.688 307.417 245.881C375.464 211.074 375.464 154.642 307.417 119.834C239.371 85.0273 129.046 85.0273 61 119.834C-7.0462 154.64 -7.0462 211.074 61.0008 245.88Z" fill="#D9EEFF"/>
</g>
<path d="M334.919 142.796C335.291 139.764 336.964 137.048 341.239 132.813C345.514 128.578 348.516 125.472 344.398 123.805C340.349 122.165 334.013 129.591 333.108 136.043C332.205 142.496 334.919 142.796 334.919 142.796Z" fill="#ABD5FD"/>
<path d="M333.345 141.557C333.324 141.557 333.302 141.556 333.281 141.552C333.07 141.519 332.926 141.323 332.961 141.115C334.81 130.042 340.888 126.237 343.416 125.115C343.609 125.028 343.842 125.114 343.93 125.305C344.018 125.496 343.932 125.722 343.736 125.809C341.323 126.88 335.517 130.528 333.729 141.237C333.697 141.425 333.532 141.557 333.345 141.557Z" fill="white"/>
<path d="M19.8819 197.63C18.5881 195.601 14.6281 193.371 9.41782 192.27C4.20756 191.169 -1.0245 189.799 0.172847 186.839C1.4651 183.646 6.3066 183.49 11.0446 185.39C16.2214 187.467 20.0492 192.611 20.1231 195.844L19.8819 197.63Z" fill="#C1E4FF"/>
<path d="M20.2896 196.706C20.1449 196.706 20.0064 196.626 19.9387 196.491C15.8021 188.11 6.21401 186.76 3.18993 187.215C2.97987 187.249 2.77914 187.105 2.74647 186.897C2.71379 186.69 2.85928 186.495 3.07167 186.463C6.24513 185.98 16.3109 187.391 20.6397 196.159C20.733 196.349 20.6521 196.577 20.4592 196.668C20.404 196.694 20.3464 196.706 20.2896 196.706Z" fill="white"/>
<path d="M19.8819 197.63C19.8819 197.63 17.3916 187.973 11.0859 182.782C9.21244 181.239 7.21454 179.31 5.81803 177.977C2.8204 175.117 4.07064 172.005 8.22438 172.062C14.3947 172.147 18.9102 177.235 20.8653 183.892C22.8189 190.551 19.8819 197.63 19.8819 197.63Z" fill="#D9EEFF"/>
<path d="M20.8653 193.882C20.6669 193.882 20.4973 193.734 20.4779 193.536C19.3156 181.256 9.74771 175.082 7.14452 174.43C6.93602 174.378 6.81076 174.17 6.86444 173.966C6.91735 173.762 7.12974 173.638 7.33747 173.692C10.4993 174.484 20.0624 180.892 21.2528 193.466C21.2722 193.675 21.1151 193.862 20.9011 193.881C20.8887 193.881 20.877 193.882 20.8653 193.882Z" fill="white"/>
<path d="M42.0036 210.136L19.8819 197.63L19.8811 151.18L42.0036 163.686V210.136Z" fill="#ABD5FD"/>
<path d="M42.0036 163.686L73.6059 145.821L73.6067 192.27L42.0036 210.136V163.686Z" fill="#C1E4FF"/>
<path d="M73.6059 145.821L42.0036 163.686L19.8811 151.18L51.4843 133.315L73.6059 145.821Z" fill="#D9EEFF"/>
<path d="M45.1646 165.472L70.4465 151.18L71.0276 151.509L71.0268 168.714L45.745 183.006L45.1638 182.677L45.1646 165.472Z" fill="#ABD5FD"/>
<path d="M45.7457 165.801L71.0276 151.509L71.0269 168.714L45.745 183.006L45.7457 165.801Z" fill="#D9EEFF"/>
<path d="M55.6551 163.115L59.9543 160.684C60.513 160.369 60.965 160.513 60.965 161.006C60.965 161.5 60.513 162.156 59.9543 162.471L55.6551 164.901C55.0965 165.217 54.6445 165.073 54.6445 164.58C54.6445 164.085 55.0973 163.43 55.6551 163.115Z" fill="#ABD5FD"/>
<path d="M44.5826 187.243L69.8653 172.95L69.8637 190.156L70.4457 190.484L45.163 204.777L44.5818 204.447L44.5826 187.243Z" fill="#ABD5FD"/>
<path d="M45.1638 187.572L70.4465 173.279L70.4457 190.484L45.163 204.777L45.1638 187.572Z" fill="#D9EEFF"/>
<path d="M55.0739 184.885L59.3732 182.455C59.9318 182.139 60.3838 182.283 60.3838 182.777C60.3838 183.27 59.931 183.926 59.3732 184.242L55.0732 186.672C54.5153 186.987 54.0625 186.843 54.0633 186.35C54.0633 185.856 54.5161 185.2 55.0739 184.885Z" fill="#ABD5FD"/>
<path d="M42.0028 161.006L19.8804 148.5V102.051L42.0028 114.556V161.006Z" fill="#ABD5FD"/>
<path d="M42.0028 114.556L73.6052 96.6909L73.6059 143.141L42.0028 161.006V114.556Z" fill="#C1E4FF"/>
<path d="M73.6052 96.6909L42.0028 114.556L19.8804 102.051L51.4835 84.1848L73.6052 96.6909Z" fill="#D9EEFF"/>
<path d="M45.163 116.343L70.4457 102.05L71.0269 102.379L71.0261 119.585L45.7442 133.876L45.1623 133.547L45.163 116.343Z" fill="#ABD5FD"/>
<path d="M55.6544 113.985L59.9536 111.555C60.5114 111.239 60.9642 111.383 60.9642 111.876C60.9642 112.37 60.5114 113.026 59.9536 113.341L55.6536 115.771C55.0958 116.087 54.643 115.943 54.643 115.45C54.6438 114.956 55.0966 114.301 55.6544 113.985Z" fill="#ABD5FD"/>
<path d="M44.5811 138.113L69.8638 123.821L69.863 141.026L70.4441 141.355L45.1623 155.646L44.5811 155.317V138.113Z" fill="#ABD5FD"/>
<path d="M45.163 138.442L70.4449 124.15L70.4442 141.355L45.1623 155.646L45.163 138.442Z" fill="#D9EEFF"/>
<path d="M55.0724 135.756L59.3716 133.326C59.9295 133.009 60.3823 133.154 60.3823 133.647C60.3823 134.141 59.9302 134.797 59.3716 135.112L55.0724 137.542C54.5138 137.857 54.0618 137.713 54.0618 137.221C54.0626 136.726 54.5146 136.071 55.0724 135.756Z" fill="#ABD5FD"/>
<path d="M45.163 116.342L70.4449 102.05L70.4442 119.255L45.1623 133.547L45.163 116.342Z" fill="#ABD5FD"/>
<path d="M83.0866 110.55L69.2476 102.729L69.2468 117.886L83.0859 125.707L83.0866 110.55Z" fill="#ABD5FD"/>
<path d="M54.6437 135.994V114.555L60.0687 111.479L60.9642 112.769L76.7654 103.836L76.7662 123.488L54.6437 135.994Z" fill="#C1E4FF"/>
<path d="M54.6437 135.994L56.2231 117.235L78.3455 104.73L76.7662 123.488L54.6437 135.994Z" fill="#D9EEFF"/>
<path d="M57.804 124.842L45.7427 118.024L45.7419 133.182L57.8032 140L57.804 124.842Z" fill="#C1E4FF"/>
<path d="M57.804 123.488L83.0859 109.196L83.0851 126.401L57.8032 140.693L57.804 123.488Z" fill="#D9EEFF"/>
<path d="M67.7134 120.802L72.0126 118.371C72.5704 118.056 73.0232 118.2 73.0232 118.693C73.0232 119.187 72.5704 119.842 72.0126 120.157L67.7134 122.588C67.1548 122.904 66.7028 122.76 66.7028 122.266C66.7035 121.773 67.1556 121.117 67.7134 120.802Z" fill="#ABD5FD"/>
<path d="M57.804 123.488L56.9614 123.013V140.217L57.8048 140.693L57.804 123.488Z" fill="#ABD5FD"/>
<path d="M56.9614 123.013L82.2441 108.72L83.0859 109.196L57.804 123.488L56.9614 123.013Z" fill="#C1E4FF"/>
<path d="M303.316 160.661L281.193 148.156V101.705L303.316 114.211V160.661Z" fill="#ABD5FD"/>
<path d="M303.316 114.211L334.918 96.3458L334.919 142.796L303.316 160.661V114.211Z" fill="#C1E4FF"/>
<path d="M334.918 96.3458L303.316 114.211L281.193 101.705L312.797 83.8405L334.918 96.3458Z" fill="#D9EEFF"/>
<path d="M306.476 115.997L331.759 101.705L332.34 102.034L332.339 119.24L307.057 133.531L306.475 133.202L306.476 115.997Z" fill="#ABD5FD"/>
<path d="M307.058 116.327L332.34 102.034L332.339 119.24L307.057 133.531L307.058 116.327Z" fill="#D9EEFF"/>
<path d="M316.968 113.64L321.267 111.21C321.825 110.893 322.277 111.038 322.277 111.531C322.277 112.025 321.825 112.68 321.267 112.996L316.967 115.427C316.409 115.742 315.957 115.598 315.957 115.105C315.957 114.611 316.41 113.955 316.968 113.64Z" fill="#ABD5FD"/>
<path d="M305.895 137.768L331.177 123.476V140.68L331.758 141.01L306.475 155.302L305.894 154.972L305.895 137.768Z" fill="#ABD5FD"/>
<path d="M306.476 138.097L331.759 123.805L331.758 141.01L306.475 155.302L306.476 138.097Z" fill="#D9EEFF"/>
<path d="M316.386 135.41L320.686 132.98C321.243 132.664 321.696 132.808 321.696 133.302C321.696 133.795 321.243 134.451 320.686 134.767L316.385 137.198C315.827 137.513 315.375 137.369 315.375 136.876C315.376 136.382 315.828 135.726 316.386 135.41Z" fill="#ABD5FD"/>
<path d="M92.8334 209.214C92.8334 209.214 92.9252 197.132 85.1452 188.074C78.2537 180.051 74.5909 174.961 76.7669 172.618C78.9422 170.275 83.5985 169.709 89.8957 176.192C96.1928 182.674 96.6799 200.66 95.8108 204.729L92.8334 209.214Z" fill="#1BBC9D"/>
<path d="M94.1747 196.225C93.995 196.225 93.8339 196.102 93.795 195.923C91.0728 183.452 84.0809 176.557 80.1559 173.558C79.9863 173.429 79.9567 173.189 80.089 173.023C80.2205 172.858 80.4648 172.828 80.6352 172.957C84.6434 176.021 91.7823 183.058 94.5559 195.764C94.601 195.97 94.4672 196.172 94.2572 196.216C94.2291 196.222 94.2019 196.225 94.1747 196.225Z" fill="white"/>
<path d="M92.5681 213.709L89.4071 215.496C89.4071 215.496 88.5988 212.717 85.1406 211.923C81.6823 211.128 78.0841 211.287 75.6614 208.349C73.2395 205.411 76.1881 202.214 75.6614 200.049C75.1347 197.883 74.783 197.261 70.4449 195.099C66.1076 192.937 64.3921 189.346 67.6573 186.912C70.9218 184.477 76.2293 186.265 79.423 188.401C82.2736 190.307 84.9803 190.809 88.1569 191.192C91.3334 191.573 96.5211 193.314 95.7276 200.549C94.9356 207.782 92.5681 213.709 92.5681 213.709Z" fill="#27DEBF"/>
<path d="M92.9252 213.122C92.7292 213.122 92.5596 212.977 92.5386 212.781C90.8059 196.739 71.0696 189.128 70.8705 189.053C70.6698 188.977 70.5694 188.757 70.6464 188.561C70.7234 188.365 70.9475 188.266 71.149 188.343C71.3528 188.42 91.5287 196.193 93.3119 212.702C93.3344 212.911 93.1796 213.099 92.9665 213.121C92.9524 213.121 92.9385 213.122 92.9252 213.122Z" fill="white"/>
<path d="M80.3955 204.191C80.2306 204.191 80.0781 204.088 80.0252 203.926C79.9599 203.725 80.0727 203.511 80.2765 203.447C80.562 203.358 87.2956 201.276 90.1392 203.513C90.3065 203.645 90.3337 203.884 90.1991 204.048C90.0653 204.213 89.8202 204.239 89.6522 204.106C87.1307 202.123 80.5799 204.152 80.5146 204.172C80.4749 204.185 80.4344 204.191 80.3955 204.191Z" fill="white"/>
<path d="M286.432 203.159C286.521 202.898 289.858 186.073 286.432 174.143C283.29 163.206 279.259 159.169 273.473 158.279C267.687 157.39 265.175 161.47 268.248 166.997C271.321 172.524 278.716 179.869 280.533 192.223C281.281 197.309 281.902 201.729 281.902 201.729L286.432 203.159Z" fill="#1BBC9D"/>
<path d="M284.485 193.501C284.478 193.501 284.471 193.501 284.463 193.5C284.249 193.488 284.085 193.308 284.097 193.098C284.894 179.48 280.331 167.318 272.187 161.359C272.015 161.233 271.98 160.994 272.109 160.826C272.237 160.658 272.481 160.623 272.653 160.749C281.002 166.859 285.685 179.271 284.873 193.141C284.862 193.345 284.691 193.501 284.485 193.501Z" fill="white"/>
<path d="M295.391 211.923C294.945 208.796 296.784 204.098 301.146 202.989C305.507 201.883 307.457 199.422 305.882 196.74C304.306 194.058 304.678 191.599 308.64 190.483C312.601 189.368 316.07 187.42 313.786 183.338C312.131 180.377 311.764 178.459 315.825 172.619C319.193 167.776 316.44 164.935 312.221 165.473C308.003 166.01 305.401 170.92 302.768 171.749C300.135 172.578 299.518 168.179 296.041 170.144C292.563 172.11 292.778 177.146 292.667 180.657C292.558 184.168 292.324 184.964 289.179 184.533C286.034 184.102 282.967 184.612 283.026 192.054C283.077 198.442 286.56 206.347 286.56 206.347L295.391 211.923Z" fill="#27DEBF"/>
<path d="M289.875 207.16C289.86 207.16 289.846 207.159 289.831 207.158C289.618 207.134 289.464 206.946 289.488 206.737C291.679 187.544 308.501 171.36 312.886 168.076C313.056 167.948 313.3 167.98 313.431 168.147C313.561 168.315 313.529 168.553 313.358 168.681C309.03 171.923 292.421 187.896 290.261 206.821C290.238 207.016 290.07 207.16 289.875 207.16Z" fill="white"/>
<path d="M297.545 186.648C297.387 186.648 297.238 186.553 297.18 186.4C297.105 186.203 297.207 185.984 297.409 185.91C303.685 183.624 310.794 184.701 311.094 184.749C311.305 184.782 311.45 184.978 311.416 185.185C311.382 185.392 311.176 185.53 310.971 185.501C310.9 185.488 303.759 184.408 297.681 186.625C297.636 186.64 297.59 186.648 297.545 186.648Z" fill="white"/>
<path d="M291.959 198.177C291.85 198.177 291.744 198.134 291.667 198.049C287.481 193.408 286.578 187.87 286.541 187.636C286.509 187.429 286.655 187.234 286.867 187.202C287.083 187.174 287.277 187.313 287.31 187.521C287.319 187.576 288.221 193.077 292.25 197.544C292.393 197.702 292.377 197.943 292.216 198.082C292.143 198.146 292.051 198.177 291.959 198.177Z" fill="white"/>
<path d="M215.819 261.946C193.696 249.44 173.173 235.843 163.803 219.889L192.246 203.809L215.819 261.946Z" fill="#D9EEFF"/>
<path d="M92.5681 95.7974V213.709L215.819 144.035L215.818 36.8419L124.171 88.6519L121.011 79.7193L92.5681 95.7974Z" fill="#4C9FFF"/>
<path d="M92.5681 213.709L98.8878 106.516L222.138 36.8419L215.819 144.035L92.5681 213.709Z" fill="#ABD5FD"/>
<path d="M92.5681 213.709L102.048 108.303L225.299 38.6282L215.819 144.035L92.5681 213.709Z" fill="#4C9FFF"/>
<path d="M111.53 106.517V224.428L234.781 154.754L234.78 47.5619L143.133 99.3712L139.973 90.4378L111.53 106.517Z" fill="#2460DA"/>
<path d="M111.53 224.428L117.85 117.236L241.1 47.5609L234.781 154.754L111.53 224.428Z" fill="#C1E4FF"/>
<path d="M111.53 224.428L121.01 119.022L244.261 49.3472L234.781 154.754L111.53 224.428Z" fill="#2460DA"/>
<path d="M133.651 119.022V236.934L256.902 167.259L256.901 60.067L165.254 111.876L162.093 102.944L133.651 119.022Z" fill="#4C9FFF"/>
<path d="M169.159 153.884C168.849 153.884 168.802 153.533 168.802 153.324V52.7516C168.802 52.0447 169.33 51.1496 169.955 50.7961L258.908 0.510392C259.058 0.425835 259.199 0.381653 259.315 0.381653C259.626 0.381653 259.672 0.732832 259.672 0.942321V101.515C259.672 102.221 259.144 103.117 258.519 103.47L169.567 153.756C169.417 153.84 169.276 153.884 169.159 153.884Z" fill="white"/>
<path d="M259.264 0.770159C259.274 0.806724 259.283 0.863094 259.283 0.941558V101.514C259.283 102.081 258.826 102.856 258.325 103.139L169.372 153.426C169.3 153.467 169.245 153.486 169.21 153.496C169.2 153.459 169.191 153.403 169.191 153.324V52.7516C169.191 52.1841 169.648 51.4093 170.15 51.126L259.103 0.840244C259.175 0.799108 259.229 0.7793 259.264 0.770159ZM259.315 0C259.134 0 258.93 0.0578952 258.714 0.17978L169.761 50.4655C169.017 50.886 168.414 51.9091 168.414 52.7508V153.323C168.414 153.919 168.717 154.265 169.16 154.265C169.341 154.265 169.546 154.207 169.761 154.085L258.714 103.799C259.458 103.379 260.061 102.356 260.061 101.514V0.941558C260.061 0.345085 259.758 0 259.315 0Z" fill="#C1E4FF"/>
<path d="M177.895 56.5871L209.497 38.7219V74.4524L177.895 92.3183V56.5871Z" fill="#D9EEFF"/>
<path d="M204.757 47.6545V58.3735L203.767 58.9151C203.767 58.9151 203.767 57.4449 203.767 55.6311C203.767 53.8173 202.259 53.2003 200.398 54.2515L186.993 61.8289C185.132 62.8802 183.624 65.2036 183.624 67.0174V70.3014L182.634 70.8796V60.1607L204.757 47.6545Z" fill="white"/>
<path d="M198.661 74.9742C197.04 75.8906 195.725 74.9285 195.725 72.8244V55.6311L191.666 57.7945V75.1189C191.666 77.2229 190.353 79.6713 188.731 80.5877L185.795 82.2469V83.385L201.597 74.4524V73.3143C201.597 73.3143 200.282 74.0577 198.661 74.9742Z" fill="white"/>
<path d="M215.817 36.9356C215.818 37.9221 216.723 38.2108 217.839 37.58L248.559 20.2138C249.675 19.5823 250.581 18.2712 250.581 17.284C250.581 16.2975 249.676 16.0095 248.559 16.6403L217.839 34.0065C216.722 34.6373 215.817 35.949 215.817 36.9356Z" fill="#ABD5FD"/>
<path d="M215.817 47.6545C215.818 48.641 216.723 48.9298 217.839 48.299L248.559 30.9328C249.675 30.3012 250.581 28.9902 250.581 28.003C250.581 27.0165 249.676 26.7285 248.559 27.3593L217.839 44.7255C216.722 45.357 215.817 46.668 215.817 47.6545Z" fill="#ABD5FD"/>
<path d="M215.817 58.3743C215.818 59.3608 216.723 59.6495 217.839 59.0187L248.559 41.6525C249.675 41.021 250.581 39.71 250.581 38.7227C250.581 37.7362 249.676 37.4482 248.559 38.079L217.839 55.4452C216.722 56.076 215.817 57.3878 215.817 58.3743Z" fill="#ABD5FD"/>
<path d="M215.817 69.0932C215.818 70.0797 216.723 70.3684 217.839 69.7377L248.559 52.3714C249.675 51.7399 250.581 50.4289 250.581 49.4417C250.581 48.4552 249.676 48.1664 248.559 48.798L217.839 66.1642C216.722 66.795 215.817 68.1067 215.817 69.0932Z" fill="#ABD5FD"/>
<path d="M177.895 101.255C177.895 102.241 178.799 102.53 179.916 101.898L248.559 63.0904C249.675 62.4589 250.581 61.1479 250.581 60.1606C250.581 59.1741 249.676 58.8854 248.559 59.5169L179.915 98.325C178.799 98.9557 177.895 100.267 177.895 101.255Z" fill="#ABD5FD"/>
<path d="M177.895 111.974C177.895 112.96 178.799 113.249 179.916 112.617L248.559 73.8094C249.675 73.1779 250.581 71.8669 250.581 70.8796C250.581 69.8931 249.676 69.6044 248.559 70.2359L179.915 109.044C178.799 109.675 177.895 110.986 177.895 111.974Z" fill="#ABD5FD"/>
<path d="M177.895 122.693C177.895 123.679 178.799 123.968 179.916 123.336L248.559 84.5284C249.675 83.8969 250.581 82.5858 250.581 81.5986C250.581 80.6121 249.676 80.3234 248.559 80.9549L179.915 119.763C178.799 120.394 177.895 121.706 177.895 122.693Z" fill="#ABD5FD"/>
<path d="M133.652 236.934L155.773 142.247L279.023 72.573L256.902 167.259L133.652 236.934Z" fill="#C1E4FF"/>
<path d="M163.803 149.663V219.889L192.245 203.81L192.246 133.585L163.803 149.663Z" fill="#4C9FFF"/>
<path d="M215.845 261.491C213.427 259.728 190.104 242.27 178.248 217.337C165.627 190.797 165.638 159.842 165.643 148.189V147.827L250.192 100.031C250.187 111.789 250.204 142.788 262.87 169.422C274.451 193.776 296.883 211.034 300.44 213.669L215.845 261.491Z" fill="white"/>
<path d="M249.803 100.69C249.804 112.938 250.047 143.358 262.518 169.584C273.711 193.119 294.997 210.046 299.741 213.625L215.873 261.036C212.595 258.617 190.147 241.456 178.602 217.177C166.018 190.714 166.028 159.82 166.032 148.189V148.047L249.803 100.69ZM250.581 99.3708L165.254 147.607C165.254 158.566 165.018 190.417 177.896 217.498C190.537 244.08 215.82 261.946 215.82 261.946L301.148 213.71C301.148 213.71 275.865 195.844 263.224 169.262C250.345 142.181 250.581 110.33 250.581 99.3708Z" fill="#C1E4FF"/>
<path d="M240.932 115.544L213.946 130.8C212.83 131.431 211.949 132.725 211.986 133.69C212.024 134.656 212.966 134.926 214.082 134.295L241.067 119.04C242.184 118.409 243.051 117.115 243.014 116.15C242.977 115.185 242.048 114.913 240.932 115.544Z" fill="#ABD5FD"/>
<path d="M241.507 125.939L214.522 141.194C213.405 141.825 212.561 143.099 212.643 144.039C212.726 144.979 213.706 145.228 214.822 144.597L241.809 129.342C242.925 128.711 243.755 127.438 243.672 126.499C243.588 125.559 242.623 125.308 241.507 125.939Z" fill="#ABD5FD"/>
<path d="M242.584 136.049L215.599 151.304C214.482 151.935 213.675 153.187 213.809 154.099C213.942 155.01 214.962 155.237 216.078 154.606L243.064 139.351C244.18 138.719 244.971 137.47 244.838 136.558C244.705 135.646 243.701 135.417 242.584 136.049Z" fill="#ABD5FD"/>
<path d="M244.203 145.854L217.217 161.108C216.1 161.74 215.336 162.969 215.519 163.852C215.701 164.736 216.764 164.938 217.881 164.307L244.866 149.052C245.983 148.421 246.73 147.196 246.547 146.312C246.364 145.429 245.318 145.222 244.203 145.854Z" fill="#ABD5FD"/>
<path d="M246.397 155.332L219.411 170.587C218.294 171.218 217.574 172.422 217.813 173.273C218.052 174.125 219.16 174.302 220.276 173.67L247.262 158.415C248.378 157.784 249.08 156.585 248.841 155.733C248.602 154.882 247.513 154.701 246.397 155.332Z" fill="#ABD5FD"/>
<path d="M249.205 164.464L183.435 201.645C182.318 202.276 181.646 203.453 181.949 204.269C182.251 205.085 183.41 205.232 184.526 204.601L250.297 167.421C251.413 166.789 252.064 165.619 251.762 164.803C251.46 163.986 250.322 163.833 249.205 164.464Z" fill="#ABD5FD"/>
<path d="M252.71 173.186L186.94 210.367C185.823 210.998 185.211 212.143 185.58 212.921C185.949 213.7 187.159 213.816 188.275 213.186L254.046 176.004C255.163 175.373 255.762 174.234 255.393 173.455C255.025 172.677 253.827 172.555 252.71 173.186Z" fill="#ABD5FD"/>
<path d="M257 181.5L191.229 218.68C190.113 219.311 189.557 220.426 189.999 221.162C190.441 221.899 191.716 221.978 192.834 221.347L258.603 184.166C259.721 183.535 260.255 182.433 259.813 181.695C259.37 180.959 258.116 180.868 257 181.5Z" fill="#ABD5FD"/>
<path d="M262.063 189.356L196.293 226.537C195.177 227.168 194.676 228.252 195.185 228.952C195.694 229.65 197.02 229.698 198.137 229.067L263.907 191.886C265.024 191.255 265.507 190.183 264.998 189.485C264.488 188.786 263.179 188.724 262.063 189.356Z" fill="#ABD5FD"/>
<path d="M267.803 196.828L202.032 234.01C200.916 234.641 200.464 235.699 201.032 236.364C201.6 237.029 202.973 237.051 204.09 236.419L269.86 199.238C270.977 198.608 271.414 197.563 270.846 196.897C270.277 196.232 268.918 196.197 267.803 196.828Z" fill="#ABD5FD"/>
<path d="M274.16 203.949L208.39 241.131C207.273 241.762 206.866 242.795 207.489 243.429C208.111 244.064 209.526 244.061 210.644 243.43L276.414 206.249C277.531 205.618 277.924 204.598 277.303 203.963C276.679 203.328 275.277 203.318 274.16 203.949Z" fill="#ABD5FD"/>
<path d="M281.113 210.747L215.343 247.928C214.226 248.559 213.863 249.567 214.539 250.172C215.214 250.777 216.674 250.749 217.79 250.117L283.561 212.937C284.677 212.306 285.028 211.31 284.352 210.705C283.676 210.101 282.229 210.116 281.113 210.747Z" fill="#ABD5FD"/>
<path d="M204.168 136.328L173.14 153.868C173.486 164.872 174.767 180.754 179.47 196.74L210.498 179.199C205.795 163.213 204.514 147.332 204.168 136.328Z" fill="#D9EEFF"/>
<path d="M185.795 151.431C185.795 149.728 185.229 148.417 184.279 147.572L173.14 153.869C173.231 156.776 173.391 160.032 173.659 163.532C174.881 163.729 176.323 163.513 177.873 162.806C182.249 160.806 185.795 155.714 185.795 151.431Z" fill="#ABD5FD"/>
<path d="M207.867 168.688L207.866 168.687C205.797 166.132 201.588 158.249 199.789 154.815C199.47 154.204 198.559 154.29 198.351 154.943C195.244 164.709 194.985 174.941 194.985 174.941C192.491 173.009 190.696 171.087 188.398 167.763C188.065 167.281 187.312 167.41 187.163 167.973C183.77 180.765 185.471 193.347 185.471 193.347L210.497 179.199C209.461 175.672 208.598 172.154 207.867 168.688Z" fill="#ABD5FD"/>
</svg>
